<?xml version="1.0" standalone="yes"?>

<svg version="1.1" viewBox="0.0 0.0 384.0 384.0" fill="none" stroke="none" stroke-linecap="square" stroke-miterlimit="10" xmlns="http://www.w3.org/2000/svg" xmlns:xlink="http://www.w3.org/1999/xlink"><clipPath id="p.0"><path d="m0 0l384.0 0l0 384.0l-384.0 0l0 -384.0z" clip-rule="nonzero"></path></clipPath><g clip-path="url(#p.0)"><path fill="#000000" fill-opacity="0.0" d="m0 0l384.0 0l0 384.0l-384.0 0z" fill-rule="nonzero"></path><path fill="#000000" fill-opacity="0.0" d="m136.8198 86.11211l146.4567 31.401573l-31.40158 146.33072l-146.4567 -31.40158z" fill-rule="nonzero"></path><path fill="#ffd966" d="m1.8582677 192.0l0 0c0 -106.03867 85.12935 -192.0 190.14174 -192.0q95.07086 0 190.14172 0q0 96.0 0 192.0l0 0c0 106.038666 -85.12933 192.0 -190.14172 192.0l0 0c-105.01238 0 -190.14174 -85.961334 -190.14174 -192.0z" fill-rule="nonzero"></path><path stroke="#000000" stroke-width="2.0" stroke-linejoin="round" stroke-linecap="butt" d="m1.8582677 192.0l0 0c0 -106.03867 85.12935 -192.0 190.14174 -192.0q95.07086 0 190.14172 0q0 96.0 0 192.0l0 0c0 106.038666 -85.12933 192.0 -190.14172 192.0l0 0c-105.01238 0 -190.14174 -85.961334 -190.14174 -192.0z" fill-rule="nonzero"></path><path fill="#000000" fill-opacity="0.0" d="m75.67454 62.540684l250.17325 0l0 226.3937l-250.17325 0z" fill-rule="nonzero"></path><path fill="#000000" d="m265.5275 69.96727l-37.519302 155.73035c-3.120407 12.951828 -7.0467987 21.99353 -11.77916 27.125137c-4.724106 5.097351 -11.881165 8.321533 -21.471146 9.672577c-9.581741 1.3167725 -20.402847 0.52233887 -32.463303 -2.3833923c-16.355972 -3.9406128 -28.392166 -10.212006 -36.10858 -18.814163c-7.716423 -8.602173 -10.072594 -21.677124 -7.0685196 -39.224854l-44.25965 -6.748108c-6.0844345 22.35231 -2.0477753 41.27008 12.109962 56.753326c14.212807 15.496506 37.262154 27.085892 69.14803 34.768112c21.47754 5.1745605 40.83029 6.955078 58.058243 5.3415833c17.283035 -1.6002502 30.837387 -6.709076 40.66307 -15.326416c9.880753 -8.604126 17.099533 -22.363052 21.656326 -41.27684l37.110687 -154.03427z" fill-rule="evenodd"></path><path stroke="#000000" stroke-width="2.0" stroke-linejoin="round" stroke-linecap="butt" d="m265.5275 69.96727l-37.519302 155.73035c-3.120407 12.951828 -7.0467987 21.99353 -11.77916 27.125137c-4.724106 5.097351 -11.881165 8.321533 -21.471146 9.672577c-9.581741 1.3167725 -20.402847 0.52233887 -32.463303 -2.3833923c-16.355972 -3.9406128 -28.392166 -10.212006 -36.10858 -18.814163c-7.716423 -8.602173 -10.072594 -21.677124 -7.0685196 -39.224854l-44.25965 -6.748108c-6.0844345 22.35231 -2.0477753 41.27008 12.109962 56.753326c14.212807 15.496506 37.262154 27.085892 69.14803 34.768112c21.47754 5.1745605 40.83029 6.955078 58.058243 5.3415833c17.283035 -1.6002502 30.837387 -6.709076 40.66307 -15.326416c9.880753 -8.604126 17.099533 -22.363052 21.656326 -41.27684l37.110687 -154.03427z" fill-rule="evenodd"></path></g></svg>

