<?xml version="1.0" standalone="yes"?>

<svg version="1.1" viewBox="0.0 0.0 384.0 192.0" fill="none" stroke="none" stroke-linecap="square" stroke-miterlimit="10" xmlns="http://www.w3.org/2000/svg" xmlns:xlink="http://www.w3.org/1999/xlink"><clipPath id="p.0"><path d="m0 0l384.0 0l0 192.0l-384.0 0l0 -192.0z" clip-rule="nonzero"></path></clipPath><g clip-path="url(#p.0)"><path fill="#f3f3f3" d="m0 0l384.0 0l0 192.0l-384.0 0z" fill-rule="nonzero"></path><path fill="#000000" fill-opacity="0.0" d="m136.8198 43.056053l146.4567 15.6850395l-31.40158 73.16536l-146.4567 -15.685043z" fill-rule="nonzero"></path><path fill="#000000" fill-opacity="0.0" d="m75.67454 31.270342l250.17325 0l0 113.19685l-250.17325 0z" fill-rule="nonzero"></path><path fill="#000000" fill-opacity="0.0" d="m44.845146 31.270342l279.68503 0l0 49.984253l-279.68503 0z" fill-rule="nonzero"></path><path fill="#000000" d="m72.532646 54.326588q-1.25 0 -3.140625 -0.25l-3.140625 -0.40625q-0.453125 5.6875 -0.453125 10.859379q0 1.359375 0.078125 3.375q0.078125 2.015625 0.078125 3.375q0 1.84375 -0.140625 3.34375l6.15625 -0.078125q0.828125 0 1.375 0.578125q0.5625 0.578125 0.5625 1.421875q0 0.859375 -0.5625 1.4375q-0.546875 0.5625 -1.375 0.5625q-1.09375 0 -3.28125 0.0625q-2.1875 0.046875 -3.28125 0.046875q-1.28125 0 -3.859375 0.359375q-2.5625 0.359375 -3.875 0.359375q-0.8125 0 -1.375 -0.578125q-0.5625 -0.578125 -0.5625 -1.421875q0 -0.828125 0.5625 -1.40625q0.5625 -0.59375 1.375 -0.59375q1.265625 0 4.203125 -0.421875q0.1875 -1.578125 0.1875 -3.609375q0 -1.34375 -0.125 -3.28125q-0.125 -1.953125 -0.125 -3.28125q0 -4.515629 0.546875 -11.265629l-2.53125 0.078125l-2.546875 0.0625q-0.84375 0 -1.40625 -0.5625q-0.5625 -0.578125 -0.5625 -1.453125q0 -1.8125 1.828125 -2.0q1.59375 -0.15625 5.921875 -0.15625q3.890625 0 9.75 0.84375q1.734375 0.25 1.734375 2.09375q0 0.921875 -0.65625 1.46875q-0.59375 0.4375 -1.359375 0.4375zm35.13672 23.546879q-2.203125 1.03125 -6.921875 1.859375q-4.359375 0.75 -7.109375 0.75q-1.984375 0 -2.84375 -0.59375q-1.171875 -0.828125 -1.171875 -3.015625l0.390625 -6.46875q0.515625 -8.937504 0.515625 -19.843754q0 -0.84375 0.546875 -1.421875q0.5625 -0.59375 1.390625 -0.59375q0.828125 0 1.390625 0.59375q0.5625 0.578125 0.5625 1.421875q0 11.03125 -0.53125 20.078129l-0.25 2.96875q-0.15625 1.625 -0.125 2.875q5.09375 0.0625 12.890625 -2.40625q0.328125 -0.09375 0.625 -0.09375q0.84375 0 1.40625 0.65625q0.484375 0.609375 0.484375 1.390625q0 1.25 -1.25 1.84375zm12.0625 1.953125q-3.28125 0 -5.65625 -2.421875q-2.625 -2.703125 -2.765625 -7.25q-0.125 -4.421875 2.21875 -7.781254q2.734375 -3.953125 7.625 -3.953125q3.90625 0 5.921875 3.5625q1.5937424 2.8906288 1.5312424 6.953129q-0.046875 4.34375 -2.2656174 7.40625q-2.5 3.484375 -6.609375 3.484375zm1.171875 -17.453129q-2.875 -0.015625 -4.484375 2.7343788q-1.265625 2.21875 -1.265625 5.046875q0 2.828125 1.546875 4.40625q1.28125 1.3125 3.03125 1.3125q2.03125 0 3.484375 -1.484375q1.671875 -1.640625 1.765625 -4.4375q0.265625 -7.546879 -4.078125 -7.578129zm21.535149 15.281254q-0.0625 1.796875 -1.78125 1.796875q-1.421875 0 -2.0625 -1.6875l-2.984375 -7.921875l-3.484375 -8.968754q-0.1875 -0.5 -0.1875 -0.890625q0 -0.8125 0.59375 -1.375q0.609375 -0.5625 1.40625 -0.5625q1.171875 0 1.6875 1.1875l4.953125 13.656254q1.46875 -3.125 3.703125 -9.062504q0.515625 -1.5625 1.65625 -4.421875q0.609375 -1.25 1.71875 -1.25q0.796875 0 1.40625 0.578125q0.609375 0.5625 0.609375 1.34375q0 0.734375 -3.234375 8.359379l-4.0 9.21875zm19.578125 1.921875q-4.421875 0 -7.15625 -2.21875q-2.984375 -2.4375 -2.984375 -6.828125q0 -5.078125 2.453125 -8.515629q2.6875 -3.75 7.15625 -3.75q3.234375 0 5.296875 1.09375q2.515625 1.34375 2.515625 4.140625q0 1.9531288 -2.203125 3.5468788q-0.984375 0.703125 -4.140625 2.1875l-7.46875 3.53125q1.09375 1.625 2.71875 2.453125q1.640625 0.8125 3.8125 0.8125q1.34375 0 3.15625 -0.5q2.3125 -0.65625 2.96875 -1.6875q0.671875 -1.046875 1.421875 -1.046875q0.6875 0 1.21875 0.515625q0.546875 0.515625 0.546875 1.203125q0 2.15625 -3.5 3.71875q-2.984375 1.34375 -5.8125 1.34375zm-0.53125 -17.796879q-2.390625 0 -3.96875 1.84375q-1.578125 1.8437538 -2.359375 5.546879l6.0 -2.84375q3.53125 -1.71875 5.03125 -2.9843788q-1.671875 -1.5625 -4.703125 -1.5625zm50.351562 18.765629q-0.90625 0 -1.578125 -0.5q-0.78125 -0.59375 -0.78125 -1.453125q-0.90625 -2.359375 -1.140625 -3.84375q-0.234375 -1.484375 -1.546875 -8.421875q-0.984375 -5.250004 -1.328125 -8.437504q-1.734375 6.437504 -3.71875 10.921879q-2.3125 5.171875 -3.0 8.09375q0.234375 0.453125 0.234375 0.890625q0 0.875 -0.78125 1.4375q-0.703125 0.53125 -1.59375 0.53125q-2.640625 0 -2.640625 -2.359375l-0.609375 -2.484375l-2.125 -9.578125q-1.265625 -4.843754 -4.328125 -13.875004q-0.140625 -0.4375 -0.140625 -0.78125q0 -1.828125 2.046875 -1.828125q1.265625 0 1.953125 1.390625q0.359375 0.703125 1.421875 4.046875q1.15625 3.53125 2.3125 8.515625l1.890625 8.625004q2.09375 -4.84375 4.15625 -11.796879q1.28125 -4.234375 1.9375 -5.875q1.765625 -4.3125 3.421875 -4.3125q1.359375 0 1.9375 1.390625q0.703125 1.671875 1.421875 8.0q0.390625 3.203125 1.328125 7.703129l1.671875 7.671875q2.625 -6.296875 6.546875 -17.015629q0.21875 -0.578125 0.984375 -3.6875q0.5625 -2.28125 1.375 -3.5625q0.703125 -1.0625 1.84375 -1.0625q1.96875 0 1.96875 1.953125q0 0.328125 -0.625 1.953125l-0.78125 2.109375l-1.078125 3.46875l-5.796875 14.109379q-0.796875 2.3125 -2.75 6.75q-0.703125 1.3125 -2.109375 1.3125zm25.628906 -0.96875q-4.421875 0 -7.15625 -2.21875q-2.984375 -2.4375 -2.984375 -6.828125q0 -5.078125 2.453125 -8.515629q2.6875 -3.75 7.15625 -3.75q3.234375 0 5.296875 1.09375q2.515625 1.34375 2.515625 4.140625q0 1.9531288 -2.203125 3.5468788q-0.984375 0.703125 -4.140625 2.1875l-7.46875 3.53125q1.09375 1.625 2.71875 2.453125q1.640625 0.8125 3.8125 0.8125q1.34375 0 3.15625 -0.5q2.3125 -0.65625 2.96875 -1.6875q0.671875 -1.046875 1.421875 -1.046875q0.6875 0 1.21875 0.515625q0.546875 0.515625 0.546875 1.203125q0 2.15625 -3.5 3.71875q-2.984375 1.34375 -5.8125 1.34375zm-0.53125 -17.796879q-2.390625 0 -3.96875 1.84375q-1.578125 1.8437538 -2.359375 5.546879l6.0 -2.84375q3.53125 -1.71875 5.03125 -2.9843788q-1.671875 -1.5625 -4.703125 -1.5625zm22.445328 17.718754q-3.0 0 -5.4375153 -1.1875q-0.625 0.953125 -1.515625 0.953125q-0.75 0 -1.265625 -0.53125q-0.515625 -0.515625 -0.515625 -1.296875q0 -0.5 0.046875 -1.5q0.046875 -1.0 0.046875 -1.5q0 -2.078125 -0.109375 -6.203125q-0.109375 -4.140625 -0.109375 -6.203129q0 -1.421875 0.015625 -5.390625q0.03125 -3.984375 0.03125 -5.4375q0 -1.171875 0.484375 -2.109375q0.640625 -1.1875 1.78125 -1.1875q1.46875 0 1.46875 1.703125q0 0.265625 -0.109375 0.796875q-0.09375 0.53125 -0.09375 0.796875l-0.0625 4.28125l-0.03125 4.984375q1.703125 -1.15625 3.2343903 -1.734375q1.53125 -0.578125 2.875 -0.578125q4.203125 0 6.8125 3.234375q2.46875 3.0156288 2.46875 7.437504q0 4.453125 -2.875 7.5625q-2.875 3.109375 -7.140625 3.109375zm0.734375 -17.640629q-1.59375 0 -3.28125 0.890625q-0.8125 0.453125 -2.8125153 1.9375038l-0.03125 3.375l0.015625 3.046875l0.015625 3.203125q0.9375 0.4375 2.6406403 1.09375q1.203125 0.375 2.71875 0.375q2.828125 0 4.640625 -1.984375q1.8125 -2.0 1.8125 -4.96875q0 -2.90625 -1.453125 -4.859379q-1.59375 -2.109375 -4.265625 -2.109375z" fill-rule="nonzero"></path><path fill="#000000" d="m74.86077 126.52971q-3.03125 2.078125 -8.6875 2.078125q-1.421875 0 -3.265625 -0.453125q-2.203125 -0.53125 -3.3125 -1.359375l-0.203125 0q-0.84375 0 -1.40625 -0.59375q-0.5625 -0.59375 -0.5625 -1.421875q0 -2.0625 0.1875 -6.140625q0.1875 -4.09375 0.1875 -6.15625q0 -2.28125 -0.09375 -6.8125q-0.09375 -4.546875 -0.09375 -6.828125q0 -0.8125 0.8125 -1.6875q0.828125 -0.875 1.65625 -0.875q0.46875 0 3.125 1.3125q3.0 1.453125 3.46875 1.609375q5.546875 1.90625 9.453125 5.828125q4.59375 4.625 4.59375 10.171875q0 3.34375 -1.578125 6.40625q-1.5625 3.0625 -4.28125 4.921875zm-4.09375 -20.65625q-2.0 -1.3125 -9.203125 -4.5l0.09375 5.625l0.0625 5.609375l-0.3125 10.65625q0.140625 0.0625 0.40625 0.265625q1.71875 1.140625 4.34375 1.140625q4.453125 0 6.484375 -1.359375q1.890625 -1.296875 3.015625 -3.46875q1.125 -2.171875 1.125 -4.546875q0 -5.5 -6.015625 -9.421875zm23.789062 21.703125q-4.421875 0 -7.15625 -2.21875q-2.984375 -2.4375 -2.984375 -6.828125q0 -5.078125 2.453125 -8.515625q2.6875 -3.75 7.15625 -3.75q3.234375 0 5.296875 1.09375q2.515625 1.34375 2.515625 4.140625q0 1.953125 -2.203125 3.546875q-0.984375 0.703125 -4.140625 2.1875l-7.46875 3.53125q1.09375 1.625 2.71875 2.453125q1.640625 0.8125 3.8125 0.8125q1.34375 0 3.15625 -0.5q2.3125 -0.65625 2.96875 -1.6875q0.671875 -1.046875 1.421875 -1.046875q0.6875 0 1.21875 0.515625q0.546875 0.515625 0.546875 1.203125q0 2.15625 -3.5 3.71875q-2.984375 1.34375 -5.8125 1.34375zm-0.53125 -17.796875q-2.390625 0 -3.96875 1.84375q-1.578125 1.84375 -2.359375 5.546875l6.0 -2.84375q3.53125 -1.71875 5.03125 -2.984375q-1.671875 -1.5625 -4.703125 -1.5625zm22.320312 15.875q-0.0625 1.796875 -1.78125 1.796875q-1.421875 0 -2.0625 -1.6875l-2.984375 -7.921875l-3.484375 -8.96875q-0.1875 -0.5 -0.1875 -0.890625q0 -0.8125 0.59375 -1.375q0.609375 -0.5625 1.40625 -0.5625q1.171875 0 1.6875 1.1875l4.953125 13.65625q1.46875 -3.125 3.703125 -9.0625q0.515625 -1.5625 1.65625 -4.421875q0.609375 -1.25 1.71875 -1.25q0.796875 0 1.40625 0.578125q0.609375 0.5625 0.609375 1.34375q0 0.734375 -3.234375 8.359375l-4.0 9.21875zm19.578117 1.921875q-4.421875 0 -7.15625 -2.21875q-2.9843674 -2.4375 -2.9843674 -6.828125q0 -5.078125 2.4531174 -8.515625q2.6875 -3.75 7.15625 -3.75q3.234375 0 5.296875 1.09375q2.515625 1.34375 2.515625 4.140625q0 1.953125 -2.203125 3.546875q-0.984375 0.703125 -4.140625 2.1875l-7.46875 3.53125q1.09375 1.625 2.71875 2.453125q1.640625 0.8125 3.8125 0.8125q1.34375 0 3.15625 -0.5q2.3125 -0.65625 2.96875 -1.6875q0.671875 -1.046875 1.421875 -1.046875q0.6875 0 1.21875 0.515625q0.546875 0.515625 0.546875 1.203125q0 2.15625 -3.5 3.71875q-2.984375 1.34375 -5.8125 1.34375zm-0.53125 -17.796875q-2.390625 0 -3.96875 1.84375q-1.578125 1.84375 -2.359375 5.546875l6.0 -2.84375q3.53125 -1.71875 5.03125 -2.984375q-1.671875 -1.5625 -4.703125 -1.5625zm18.273438 1.53125l-0.28125 9.71875q0 1.53125 -0.15625 4.53125q-0.203125 1.953125 -1.921875 1.953125q-1.90625 0 -1.90625 -2.0q0 -2.359375 0.203125 -7.09375q0.21875 -4.734375 0.21875 -7.109375q0 -3.078125 0.09375 -7.046875q0.109375 -3.984375 0.109375 -7.0625q0 -1.953125 1.90625 -1.953125q1.9375 0 1.9375 1.953125q0 3.078125 -0.109375 7.0625q-0.09375 3.96875 -0.09375 7.046875zm13.332031 16.515625q-3.28125 0 -5.65625 -2.421875q-2.625 -2.703125 -2.765625 -7.25q-0.125 -4.421875 2.21875 -7.78125q2.734375 -3.953125 7.625 -3.953125q3.90625 0 5.921875 3.5625q1.59375 2.890625 1.53125 6.953125q-0.046875 4.34375 -2.265625 7.40625q-2.5 3.484375 -6.609375 3.484375zm1.171875 -17.453125q-2.875 -0.015625 -4.484375 2.734375q-1.265625 2.21875 -1.265625 5.046875q0 2.828125 1.546875 4.40625q1.28125 1.3125 3.03125 1.3125q2.03125 0 3.484375 -1.484375q1.671875 -1.640625 1.765625 -4.4375q0.265625 -7.546875 -4.078125 -7.578125zm20.832031 16.984375q-1.953125 0 -4.296875 -0.625l-0.03125 9.328125q0 0.859375 -0.546875 1.40625q-0.53125 0.546875 -1.375 0.546875q-0.84375 0 -1.375 -0.546875q-0.53125 -0.546875 -0.53125 -1.40625l0.046875 -7.8125l0 -7.796875q-0.046875 -4.265625 -0.28125 -7.78125l-0.296875 -3.96875q0 -1.390625 0.5 -2.34375q0.59375 -1.15625 1.703125 -1.15625q0.765625 0 1.28125 0.546875q0.515625 0.53125 0.515625 1.3125q0 0.171875 -0.0625 0.640625q-0.09375 0.609375 -0.125 1.109375q1.671875 -1.140625 3.234375 -1.71875q1.5625 -0.578125 2.984375 -0.578125q4.015625 0 5.859375 3.546875q1.46875 2.8125 1.46875 7.453125q0 4.21875 -2.265625 6.953125q-2.40625 2.890625 -6.40625 2.890625zm1.34375 -16.9375q-1.796875 0 -3.234375 0.796875q-1.03125 0.5625 -2.625 2.078125q0.265625 4.421875 0.265625 9.3125q2.125 0.8125 4.25 0.8125q2.4375 0 3.734375 -1.8125q1.109375 -1.578125 1.109375 -4.09375q0 -3.5625 -0.875 -5.328125q-0.859375 -1.765625 -2.625 -1.765625zm36.54297 17.875q-1.59375 0 -1.875 -1.703125q-0.34375 -2.15625 -0.703125 -6.0625l-0.65625 -6.046875q-0.203125 -1.34375 -0.671875 -2.640625q-0.65625 -1.75 -1.4375 -1.75q-0.71875 0 -2.703125 1.21875q-1.875 1.140625 -2.453125 1.828125q-0.015625 1.828125 0.09375 3.671875l0.59375 5.203125q0.359375 3.09375 0.359375 5.109375q0 0.859375 -0.53125 1.40625q-0.53125 0.5625 -1.375 0.5625q-0.84375 0 -1.390625 -0.5625q-0.53125 -0.546875 -0.53125 -1.40625q0 -2.375 -0.484375 -6.984375q-0.46875 -4.625 -0.46875 -6.984375q0 -2.078125 -0.578125 -3.21875q-1.375 0.625 -2.78125 2.03125l-2.296875 2.578125q-0.3125 0.46875 -1.0 1.21875q0 1.171875 -0.21875 3.46875q-0.21875 2.28125 -0.21875 3.375q0 0.578125 0.1875 1.640625q0.1875 1.046875 0.1875 1.515625q0 0.8125 -0.59375 1.359375q-0.59375 0.546875 -1.390625 0.546875q-2.21875 0 -2.21875 -5.03125q0 -1.171875 0.21875 -3.484375q0.21875 -2.328125 0.21875 -3.5q0 -1.03125 -0.1875 -3.09375q-0.1875 -2.078125 -0.1875 -3.140625q0 -4.4375 2.0 -4.4375q0.75 0 1.390625 0.671875q0.640625 0.65625 0.640625 1.4375q0 0.375 -0.109375 1.15625q-0.09375 0.78125 -0.09375 1.1875l0.046875 2.0625q1.015625 -2.09375 2.984375 -3.78125q1.96875 -1.6875 3.359375 -1.6875q3.0625 0 4.21875 3.046875q1.078125 -1.4375 2.5625 -2.140625q1.484375 -0.71875 3.390625 -0.71875q3.265625 0 4.453125 3.515625q0.234375 0.703125 0.796875 5.484375q0.546875 3.359375 1.40625 11.203125q0.0625 0.78125 -0.53125 1.328125q-0.578125 0.546875 -1.421875 0.546875zm15.402344 -0.71875q-4.421875 0 -7.15625 -2.21875q-2.984375 -2.4375 -2.984375 -6.828125q0 -5.078125 2.453125 -8.515625q2.6875 -3.75 7.15625 -3.75q3.234375 0 5.296875 1.09375q2.515625 1.34375 2.515625 4.140625q0 1.953125 -2.203125 3.546875q-0.984375 0.703125 -4.140625 2.1875l-7.46875 3.53125q1.09375 1.625 2.71875 2.453125q1.640625 0.8125 3.8125 0.8125q1.34375 0 3.15625 -0.5q2.3125 -0.65625 2.96875 -1.6875q0.671875 -1.046875 1.421875 -1.046875q0.6875 0 1.21875 0.515625q0.546875 0.515625 0.546875 1.203125q0 2.15625 -3.5 3.71875q-2.984375 1.34375 -5.8125 1.34375zm-0.53125 -17.796875q-2.390625 0 -3.96875 1.84375q-1.578125 1.84375 -2.359375 5.546875l6.0 -2.84375q3.53125 -1.71875 5.03125 -2.984375q-1.671875 -1.5625 -4.703125 -1.5625zm28.304703 18.28125q-1.6875 0 -1.90625 -1.84375l-0.546875 -4.28125q-0.265625 -2.28125 -0.265625 -4.265625q0 -0.546875 0.0625 -1.859375q0.078125 -1.3125 0.078125 -1.859375q0 -4.21875 -1.5625 -4.21875q-2.1875 0 -4.1875 2.59375q-1.796875 2.375 -2.8125 5.984375q-0.03125 0.765625 -0.171875 1.90625q-0.125 0.984375 -0.125 1.90625q0 0.578125 0.109375 1.75q0.125 1.171875 0.125 1.765625q0 0.875 -0.53125 1.421875q-0.53125 0.546875 -1.375 0.546875q-0.859375 0 -1.3906403 -0.546875q-0.53125 -0.546875 -0.53125 -1.421875q0 -0.59375 -0.125 -1.765625q-0.125 -1.171875 -0.125 -1.75q0 -2.015625 0.28125 -5.578125q0.28125 -3.5625 0.28125 -5.578125q0 -0.625 -0.0625 -1.859375q-0.0625 -1.234375 -0.0625 -1.859375q0 -0.828125 0.546875 -1.359375q0.56251526 -0.546875 1.3750153 -0.546875q1.796875 0 1.984375 2.53125l0.046875 2.296875q3.28125 -4.375 6.75 -4.375q3.125 0 4.34375 2.75q0.84375 1.828125 0.921875 5.421875l0 1.984375l-0.015625 1.8125q0 1.625 0.421875 4.1875q0.421875 2.5625 0.421875 4.171875q0 0.859375 -0.5625 1.390625q-0.5625 0.546875 -1.390625 0.546875zm19.015625 -18.03125q-0.40625 0 -0.96875 -0.03125q-0.546875 -0.046875 -0.96875 -0.046875q-0.4375 0 -2.65625 0.296875l0.375 11.53125l0.015625 0.859375l0.03125 1.0q0.078125 4.28125 -2.0625 4.28125q-0.78125 0 -1.359375 -0.515625q-0.5625 -0.5 -0.5625 -1.265625q0 -0.734375 0.046875 -2.21875q0.0625 -1.484375 0.0625 -2.234375l-0.390625 -11.40625q-1.421875 -0.0625 -4.328125 -0.328125q-1.75 -0.234375 -1.75 -1.9375q0 -0.859375 0.53125 -1.421875q0.53125 -0.5625 1.34375 -0.5625l4.109375 0.328125q0 -1.0 -0.09375 -2.671875q-0.078125 -1.671875 -0.078125 -2.40625q0 -0.828125 0.5625 -1.359375q0.5625 -0.53125 1.390625 -0.53125q1.75 0 2.046875 2.859375q0.0625 0.734375 0.0625 1.75l-0.046875 1.125l-0.015625 1.21875q2.421875 -0.3125 2.765625 -0.3125q2.03125 0 2.65625 0.1875q1.203125 0.390625 1.203125 1.84375q0 0.859375 -0.546875 1.421875q-0.53125 0.546875 -1.375 0.546875z" fill-rule="nonzero"></path><path fill="#fbff9c" d="m294.22925 110.643486l11.193665 -8.292061l0.4074402 -13.8795395l13.550903 3.5394363l11.1935425 -8.29216l5.7039185 12.705681l13.550903 3.5393982l-6.438019 12.304375l5.704071 12.70565l-13.732269 2.637535l-6.438141 12.304382l-10.685516 -9.015396l-13.732086 2.6376648l0.40734863 -13.879585z" fill-rule="nonzero"></path><path stroke="#000000" stroke-width="2.0" stroke-linejoin="round" stroke-linecap="butt" d="m294.22925 110.643486l11.193665 -8.292061l0.4074402 -13.8795395l13.550903 3.5394363l11.1935425 -8.29216l5.7039185 12.705681l13.550903 3.5393982l-6.438019 12.304375l5.704071 12.70565l-13.732269 2.637535l-6.438141 12.304382l-10.685516 -9.015396l-13.732086 2.6376648l0.40734863 -13.879585z" fill-rule="nonzero"></path><path fill="#000000" fill-opacity="0.0" d="m317.3939 76.552536l44.503937 9.921257l-8.0 35.84252l-44.503937 -9.921265z" fill-rule="nonzero"></path><path fill="#000000" d="m328.61655 97.28174l-4.7345886 21.212418q-0.37780762 1.6927261 -2.0706177 1.3153458q-1.7080994 -0.38078308 -1.3302612 -2.0735016q0.17358398 -0.7777405 0.4750061 -2.3434143q0.30142212 -1.5656738 0.47161865 -2.3281631q0.61605835 -2.7602081 1.8939819 -8.270424q1.2778931 -5.5102158 1.8939514 -8.270424q0.37783813 -1.6927261 2.085907 -1.311943q1.69281 0.37738037 1.3150024 2.0701065zm-6.3361206 28.459457q-0.15316772 0.68624115 -0.81448364 1.0670853q-0.6495056 0.399498 -1.3357849 0.24650574q-0.7625427 -0.16999054 -1.303833 -1.3312149q-0.5362549 -1.1120758 -0.36264038 -1.8898163q0.15316772 -0.6862335 0.7958374 -1.0552368q0.66134644 -0.38084412 1.3781433 -0.22105408q0.73202515 0.16319275 1.3038025 1.3312149q0.5091553 1.0900269 0.33895874 1.8525162z" fill-rule="nonzero"></path></g></svg>

